PathFileType	4	(X/Y/Z)	C:/Users/opensim2020/Desktop/walking_exp_matlab/subject02_walking09_straight_03.trc	
DataRate	CameraRate	NumFrames	NumMarkers	Units	OrigDataRate	OrigDataStartFrame	OrigNumFrames	
100.00	100.00	6	42	mm	100.00	2407	262	
Frame#	Time	LFHD			RFHD			LBHD			RBHD			C7			T10			CLAV			STRN			RBAK			LSHO			LUPA			LELB			LFRM			LWRA			LWRB			LFIN			RSHO			RUPA			RELB			RFRM			RWRA			RWRB			RFIN			LASI			RASI			LPSI			RPSI			LTHI			LKNE			LTIB			LANK			LHEE			LTOE			RTHI			RKNE			RTIB			RANK			RHEE			RTOE			*39			*40			*41			
		X1	Y1	Z1	X2	Y2	Z2	X3	Y3	Z3	X4	Y4	Z4	X5	Y5	Z5	X6	Y6	Z6	X7	Y7	Z7	X8	Y8	Z8	X9	Y9	Z9	X10	Y10	Z10	X11	Y11	Z11	X12	Y12	Z12	X13	Y13	Z13	X14	Y14	Z14	X15	Y15	Z15	X16	Y16	Z16	X17	Y17	Z17	X18	Y18	Z18	X19	Y19	Z19	X20	Y20	Z20	X21	Y21	Z21	X22	Y22	Z22	X23	Y23	Z23	X24	Y24	Z24	X25	Y25	Z25	X26	Y26	Z26	X27	Y27	Z27	X28	Y28	Z28	X29	Y29	Z29	X30	Y30	Z30	X31	Y31	Z31	X32	Y32	Z32	X33	Y33	Z33	X34	Y34	Z34	X35	Y35	Z35	X36	Y36	Z36	X37	Y37	Z37	X38	Y38	Z38	X39	Y39	Z39	X40	Y40	Z40	X41	Y41	Z41	X42	Y42	Z42	

230	2.290	-1080.79492	740.43091	1745.51233	-938.31012	720.49121	1727.38538	-1107.60132	638.03589	1637.94177	-969.10229	607.31464	1615.65430	-1026.89355	589.19629	1512.50256	-1018.31464	539.80121	1235.97375	-1036.51404	728.61444	1444.83972	-1020.81647	782.24750	1273.71899	-959.18427	533.45844	1340.27100	-1208.11145	661.00262	1478.61206	-1283.48462	628.39697	1275.89197	-1287.55737	609.91229	1136.07251	-1298.84937	604.26904	1004.70581	-1265.57751	646.20319	873.99390	-1298.65100	600.93457	881.44666	-1300.13110	611.16718	815.16022	-839.17255	672.14764	1483.12268	-753.59528	666.59277	1289.09778	-736.17871	705.00336	1145.75134	-725.94470	763.20898	1039.01099	-754.26184	840.22339	931.14966	-719.69470	798.51617	913.45093	-720.75751	852.53864	865.84430	-1145.62793	796.62085	992.61005	-888.71661	774.56360	960.08710	-1081.60022	576.59937	1021.16028	-967.40918	564.58765	1011.54852	-1215.74695	804.39270	691.60468	-1189.14563	818.52972	488.41000	-1200.09216	792.25092	295.78787	-1171.28003	819.95300	75.24700	-1124.07788	782.57916	46.18933	-1168.33093	978.45380	39.60501	-822.68896	645.07977	664.54449	-835.72107	610.52533	460.90524	-834.34290	478.09137	324.40411	-866.21442	366.22699	165.89638	-927.52417	318.36200	132.01173	-843.44659	467.99689	38.88298	-1012.28253	610.64569	1780.26978	-3357.04199	2846.00635	1034.01453			 
231	2.300	-1083.90918	748.53558	1746.25610	-941.45007	728.31653	1728.23828	-1110.71399	645.87433	1638.99463	-972.11206	615.08643	1617.21729	-1029.76782	596.56769	1513.37610	-1021.31903	548.08459	1236.41223	-1039.06616	736.43951	1446.11365	-1023.52325	790.54486	1275.05322	-961.89191	541.30420	1340.96533	-1210.75293	669.29572	1480.16553	-1286.37219	639.75183	1276.83887	-1291.02856	623.26831	1136.94458	-1302.29150	619.50507	1005.45404	-1268.28369	662.04846	875.20959	-1302.48633	617.40454	882.29523	-1303.70459	628.22131	815.94293	-842.06830	679.27191	1484.63794	-757.02441	672.56897	1290.44958	-739.68982	709.83557	1146.99976	-728.59656	766.62012	1039.48438	-756.18829	842.26709	930.43054	-721.85150	799.90460	913.51685	-722.25684	853.27271	864.93018	-1148.75269	805.41412	995.49841	-892.94409	783.86176	961.44867	-1084.44543	585.36682	1021.77698	-969.77899	573.72070	1012.51263	-1218.46045	812.93146	692.61084	-1191.13599	823.02533	488.28854	-1200.14270	793.72742	295.60495	-1171.20483	819.98505	75.11403	-1124.04187	782.32550	46.56903	-1168.61719	978.55347	39.37490	-824.78912	656.70990	664.65814	-834.49878	625.89520	461.35977	-833.09821	490.88193	328.21252	-865.20691	375.32193	172.89728	-927.28107	327.10944	141.59657	-843.87604	469.35321	39.10492	-1015.76355	618.77893	1781.81580	-3356.86963	2845.97192	1034.09546			 
232	2.310	-1086.97095	756.58862	1747.06189	-944.56757	736.05188	1729.62061	-1113.52808	653.67517	1639.94727	-975.30450	622.31525	1618.54272	-1032.79187	604.04645	1514.01099	-1024.18579	556.42542	1237.24146	-1041.52539	744.28729	1447.48010	-1026.05884	798.79797	1276.45386	-964.47314	549.18909	1341.94312	-1213.22070	677.40125	1481.66150	-1289.47778	651.20160	1277.99939	-1294.51978	636.71497	1137.99121	-1305.78235	634.78845	1006.73645	-1271.03259	678.26440	876.68933	-1306.23987	634.34949	883.18848	-1306.92224	645.94647	816.99829	-844.93146	686.19000	1486.30554	-760.33588	678.64545	1292.00269	-743.31958	714.26935	1148.13159	-731.55719	769.82318	1040.14136	-758.05054	844.12439	929.78253	-723.76392	801.30615	913.75031	-724.01489	853.77600	864.21698	-1151.71497	813.88354	998.16992	-897.40082	792.21301	962.50037	-1087.21008	594.06494	1022.26929	-972.28271	582.42688	1013.47107	-1221.07446	819.29370	693.17725	-1192.96863	826.84821	487.99393	-1199.91345	794.66589	295.36694	-1171.16650	820.02710	75.00207	-1123.90930	782.33264	46.49212	-1168.56055	978.61829	39.27301	-826.72717	668.49017	664.76117	-833.72070	641.47437	461.51993	-831.91754	504.48267	331.88342	-864.44391	385.42902	179.81966	-926.96362	336.84033	151.25429	-844.72827	471.24756	39.62701	-1019.14368	626.82959	1782.92773	-3356.90527	2846.06348	1034.09778			 
233	2.320	-1089.92603	764.55450	1747.85803	-947.58392	743.64148	1730.59351	-1116.52014	661.35944	1641.03979	-977.65576	630.18195	1619.76184	-1035.75195	611.60779	1515.02234	-1027.02454	564.59497	1238.00256	-1043.83813	752.13806	1448.83594	-1028.44946	806.90564	1277.80737	-967.06323	556.86243	1342.75232	-1215.67163	685.52502	1483.20020	-1292.46863	662.64124	1279.26257	-1297.93896	650.24353	1139.17188	-1309.38318	650.30707	1007.93835	-1273.78149	694.78162	878.34161	-1310.01514	651.58997	884.41779	-1310.30225	664.01257	818.22412	-847.70648	692.81476	1487.90381	-763.43671	684.82623	1293.55383	-746.73016	718.94464	1149.59644	-734.11554	772.77258	1040.80176	-759.81177	845.85138	929.25049	-725.86023	802.50885	913.98792	-725.65948	854.27283	863.47211	-1154.56409	822.07593	1000.42804	-901.55688	800.60815	963.94202	-1090.02673	602.55493	1022.71863	-974.94171	590.65637	1014.51617	-1223.43091	824.49933	693.35364	-1194.86230	830.19623	487.81281	-1200.28918	795.33099	295.33167	-1171.16931	819.99561	74.88197	-1124.08667	782.21790	46.38739	-1168.56714	978.63312	39.17154	-828.47430	680.45447	664.66064	-833.03717	657.53656	461.84854	-830.84363	519.05530	335.27979	-863.63416	396.69427	186.29971	-926.23761	347.44046	160.44440	-845.69452	474.62601	41.02273	-1022.25793	634.88586	1784.42786	-3360.34619	2845.29883	1034.11829			 
234	2.330	-1092.71716	772.40497	1748.70166	-950.01886	751.53821	1732.14343	-1119.13867	669.06439	1642.02551	-980.52789	637.53265	1621.15332	-1038.62439	619.30054	1515.91272	-1029.85767	572.56152	1238.95105	-1046.02466	759.95190	1450.15100	-1030.62402	814.93384	1279.14612	-969.79755	564.42719	1343.82141	-1217.91382	693.62860	1484.49768	-1295.41577	674.05994	1280.53027	-1301.38062	663.75342	1140.38086	-1312.81201	665.97052	1009.22522	-1276.54724	711.57324	880.16473	-1313.72473	669.11847	885.77087	-1313.77917	682.40790	819.64984	-850.42639	699.45593	1489.26892	-766.42450	690.55304	1294.87024	-750.11200	723.26550	1150.87610	-736.47668	775.59186	1041.41760	-761.42126	847.53760	928.67303	-728.01251	803.69678	914.13409	-727.37787	854.71326	862.65619	-1157.30444	830.01953	1002.20264	-905.07538	808.10919	965.26282	-1092.87109	610.78644	1023.30988	-977.78320	598.53192	1015.58655	-1225.32605	829.25861	692.99371	-1196.71143	833.31537	487.81332	-1202.24646	796.56952	295.55518	-1171.25220	819.98370	74.85238	-1124.13123	782.14154	46.36396	-1168.66089	978.62531	39.07872	-830.11359	692.34088	664.32593	-832.52173	673.55908	462.22607	-830.10077	534.20703	338.33652	-862.74585	408.82355	192.29298	-925.44489	358.53314	169.15440	-847.01794	479.66647	43.45406	-1025.19653	642.76996	1785.56458	-3357.00977	2845.99707	1034.20740			 
235	2.340	-1095.45435	780.21967	1749.67969	-952.69464	759.33844	1733.11902	-1121.87195	676.76654	1643.08826	-983.44366	644.85876	1622.51001	-1041.59546	626.89154	1516.97070	-1032.60950	580.31891	1239.99951	-1048.11731	767.83154	1451.43713	-1032.66333	822.76794	1280.45825	-972.92090	571.81219	1344.99670	-1220.20398	701.99988	1485.96484	-1298.35193	685.37695	1281.80042	-1304.84692	677.26740	1141.61206	-1316.46643	681.66980	1010.57990	-1279.30396	728.60175	882.08551	-1317.31860	686.79767	887.13940	-1317.31104	701.11804	821.22827	-852.97229	705.95721	1490.74878	-768.94183	696.61926	1296.27820	-753.49878	727.57642	1151.77271	-738.91821	778.19061	1041.93103	-763.07758	849.36243	928.11273	-729.88007	805.12427	914.46576	-728.99609	855.02856	861.70892	-1159.93982	837.85889	1003.55713	-908.20166	815.22095	966.54553	-1095.87366	618.66748	1024.10803	-980.83545	606.01044	1016.77167	-1227.31409	834.15454	692.60333	-1198.23682	836.40881	487.79468	-1204.20203	798.61292	295.77234	-1171.41443	820.10638	74.77886	-1124.30334	782.04779	46.34915	-1168.62097	978.62286	39.00597	-831.73480	703.97351	663.95538	-832.45380	689.56763	462.75104	-829.38910	549.94269	340.98544	-862.49487	421.29086	198.05229	-925.13965	369.86014	176.97943	-847.22699	487.34689	47.52276	-1028.24072	650.48804	1786.87964	-3356.93408	2845.95142	1034.13391			 
